<?xml version="1.0" encoding="UTF-8"?>
<svg width="48" height="48" viewBox="0 0 48 48" xmlns="http://www.w3.org/2000/svg">
  <rect width="48" height="48" rx="8" fill="#000000"/>
  <path d="M38,22h-2l-3-6H15l-3,6h-2c-1.1,0-2,0.9-2,2v10c0,1.1,0.9,2,2,2h2v3c0,1.7,1.3,3,3,3h2c1.7,0,3-1.3,3-3v-3h12v3c0,1.7,1.3,3,3,3h2c1.7,0,3-1.3,3-3v-3h2c1.1,0,2-0.9,2-2V24C40,22.9,39.1,22,38,22z M15,18h18l2,4H13L15,18z M13,31c-1.7,0-3-1.3-3-3s1.3-3,3-3s3,1.3,3,3S14.7,31,13,31z M35,31c-1.7,0-3-1.3-3-3s1.3-3,3-3s3,1.3,3,3S36.7,31,35,31z" fill="#d4af37"/>
</svg>
