<?xml version="1.0" encoding="UTF-8"?>
<!-- Generator: visioncortex VTracer 0.6.4 -->
<svg version="1.1" xmlns="http://www.w3.org/2000/svg" width="2048" height="2048">
<path d="M0 0 C2.735 1.245 5.047 2.693 7.504 4.43 C14.809 9.446 22.356 14.016 29.935 18.605 C32.337 20.067 34.73 21.545 37.121 23.027 C48.443 30.037 48.443 30.037 60.316 36.055 C60.316 36.715 60.316 37.375 60.316 38.055 C61.103 38.279 61.889 38.503 62.699 38.734 C67.441 40.465 71.749 42.798 76.191 45.18 C78.081 46.181 79.972 47.181 81.863 48.18 C82.792 48.671 83.721 49.162 84.678 49.668 C99.412 57.411 114.456 65.229 130.016 71.168 C132.728 72.213 135.393 73.353 138.066 74.492 C143.599 76.816 149.213 78.819 154.895 80.746 C157.448 81.723 159.713 82.736 162.121 83.988 C166.661 86.314 171.364 87.933 176.191 89.555 C186.898 93.219 186.898 93.219 191.441 95.117 C195.936 96.971 200.518 98.518 205.129 100.055 C205.84 100.292 206.551 100.529 207.284 100.774 C212.807 102.597 218.362 104.312 223.924 106.015 C227.247 107.033 230.567 108.06 233.887 109.09 C234.968 109.424 236.05 109.759 237.164 110.104 C239.357 110.782 241.55 111.462 243.742 112.143 C250.566 114.25 257.413 116.225 264.316 118.055 C264.316 118.715 264.316 119.375 264.316 120.055 C265.482 120.017 266.647 119.98 267.848 119.941 C272.065 119.944 275.74 120.743 279.816 121.867 C285.29 123.328 290.737 124.574 296.316 125.555 C302.927 126.721 309.349 128.293 315.816 130.09 C321.124 131.368 326.551 131.882 331.964 132.526 C338.419 133.297 344.849 134.235 351.281 135.177 C353.447 135.493 355.614 135.802 357.781 136.111 C365.711 137.26 373.511 138.667 381.337 140.41 C384.746 141.148 388.108 141.679 391.566 142.117 C395.441 142.613 399.25 143.226 403.074 144.012 C417.405 146.932 431.689 148.621 446.316 148.055" fill="#D4AF37" transform="translate(1041.68359375,529.9453125)"/>
</svg>
